<svg id="Layer_1" data-name="Layer 1" xmlns="http://www.w3.org/2000/svg" viewBox="0 0 815.98 540.25"><defs><style>.cls-1,.cls-4{fill:#ff455f;}.cls-1,.cls-11,.cls-2,.cls-3{stroke:#000;stroke-miterlimit:10;}.cls-2{fill:#2eff2e;}.cls-3{fill:#45ddff;}.cls-11,.cls-4{font-size:70px;font-family:Orbitron-Black, Orbitron;font-weight:800;}.cls-5{letter-spacing:-0.04em;}.cls-6{letter-spacing:0em;}.cls-7{letter-spacing:0.04em;}.cls-8{letter-spacing:-0.01em;}.cls-9{letter-spacing:0.01em;}.cls-10{letter-spacing:-0.03em;}.cls-11{fill:#fff;}</style></defs><rect class="cls-1" x="568.15" y="138.84" width="20" height="80" rx="10" transform="translate(532.87 631.09) rotate(-130)"/><rect class="cls-2" x="492.15" y="193" width="20" height="100" rx="10" transform="translate(358.87 678.26) rotate(-130)"/><rect class="cls-2" x="560.4" y="411.75" width="20" height="90" rx="10" transform="translate(1007.03 207.79) rotate(130)"/><rect class="cls-3" x="427.15" y="273" width="20" height="50" rx="10" transform="translate(209.96 718.82) rotate(-130)"/><rect class="cls-1" x="464.9" y="306.75" width="20" height="140" rx="10" transform="translate(788.86 149.52) rotate(130)"/><rect class="cls-3" x="793.64" y="422.96" width="20" height="80" rx="10" transform="matrix(0.64, 0.77, -0.77, 0.64, 361.82, -555.85)"/><rect class="cls-1" x="869.64" y="348.81" width="20" height="100" rx="10" transform="translate(339.82 -636.99) rotate(50)"/><rect class="cls-2" x="801.39" y="140.06" width="20" height="90" rx="10" transform="translate(-131.83 582.06) rotate(-50)"/><rect class="cls-2" x="934.64" y="318.81" width="20" height="50" rx="10" transform="translate(320.9 -706.43) rotate(50)"/><rect class="cls-3" x="896.89" y="195.06" width="20" height="140" rx="10" transform="translate(-159 683.8) rotate(-50)"/><rect class="cls-3" x="720.69" y="104.74" width="20" height="99.77" rx="10" transform="translate(1116.57 387.5) rotate(-165)"/><rect class="cls-2" x="681.15" y="215.47" width="20.15" height="171.54" rx="10" transform="translate(1001.01 665.52) rotate(-165)"/><rect class="cls-1" x="636.58" y="397.05" width="20.12" height="137.48" rx="10" transform="translate(870.79 977.47) rotate(-165)"/><text class="cls-4" transform="translate(7 524.15)">H<tspan class="cls-5" x="59.57" y="0">a</tspan><tspan class="cls-6" x="105.14" y="0">wken Cod</tspan><tspan class="cls-7" x="496.43" y="0">i</tspan><tspan class="cls-8" x="515.26" y="0">n</tspan><tspan x="563.28" y="0">g C</tspan><tspan class="cls-9" x="691.17" y="0">l</tspan><tspan class="cls-10" x="715.53" y="0">u</tspan><tspan x="762.29" y="0">b</tspan></text><text class="cls-11" transform="translate(0.5 517.53)">H<tspan class="cls-5" x="59.57" y="0">a</tspan><tspan class="cls-6" x="105.14" y="0">wken Cod</tspan><tspan class="cls-7" x="496.43" y="0">i</tspan><tspan class="cls-8" x="515.26" y="0">n</tspan><tspan x="563.28" y="0">g C</tspan><tspan class="cls-9" x="691.17" y="0">l</tspan><tspan class="cls-10" x="715.53" y="0">u</tspan><tspan x="762.29" y="0">b</tspan></text></svg>